HIERARCHY
ROOT root
{
	OFFSET	0	13.1	24.9
	CHANNELS 6  Xposition Yposition Zposition Xrotation Yrotation Zrotation
	JOINT spine_1
	{
		OFFSET	0	9.99999	0
		CHANNELS 3  Xrotation Yrotation Zrotation
		JOINT spine_2
		{
			OFFSET	0	112	-10
			CHANNELS 3  Xrotation Yrotation Zrotation
			JOINT spine_3
			{
				OFFSET	0	206.5	19.3
				CHANNELS 3  Xrotation Yrotation Zrotation
				JOINT spine_4
				{
					OFFSET	0	110.4	14.6
					CHANNELS 3  Xrotation Yrotation Zrotation
					JOINT neck_1
					{
						OFFSET	0	71.8	-50.3
						CHANNELS 3  Xrotation Yrotation Zrotation
						JOINT neck_2
						{
							OFFSET	0	86.2	-25.8
							CHANNELS 3  Xrotation Yrotation Zrotation
							JOINT head_ee
							{
								OFFSET	0	179.8	-8.7
								CHANNELS 3  Xrotation Yrotation Zrotation
								End Site
								{
									OFFSET	1	0	0
								}
							}
						}
					}
					JOINT left_clavicle
					{
						OFFSET	-43.2	22.4	-70.8
						CHANNELS 3  Xrotation Yrotation Zrotation
						JOINT left_shoulder
						{
							OFFSET	-93.9	-5.79999	48.7
							CHANNELS 3  Xrotation Yrotation Zrotation
							JOINT left_elbow
							{
								OFFSET	-291.4	-30.8	15.2
								CHANNELS 3  Xrotation Yrotation Zrotation
								JOINT left_lowarm_twist
								{
									OFFSET	-110.7	-3.89999	13.6
									CHANNELS 3  Xrotation Yrotation Zrotation
									JOINT left_hand
									{
										OFFSET	-110.7	-3.89999	13.6
										CHANNELS 3  Xrotation Yrotation Zrotation
										JOINT left_ee
										{
											OFFSET	-80.8	-5.10001	12.1
											CHANNELS 3  Xrotation Yrotation Zrotation
											End Site
											{
												OFFSET	1	0	0
											}
										}
									}
								}
							}
						}
					}
					JOINT right_clavicle
					{
						OFFSET	43.2	22.4	-70.8
						CHANNELS 3  Xrotation Yrotation Zrotation
						JOINT right_shoulder
						{
							OFFSET	93.9	-5.79999	48.7
							CHANNELS 3  Xrotation Yrotation Zrotation
							JOINT right_elbow
							{
								OFFSET	291.4	-30.8	15.2
								CHANNELS 3  Xrotation Yrotation Zrotation
								JOINT right_lowarm_twist
								{
									OFFSET	110.7	-3.89999	13.6
									CHANNELS 3  Xrotation Yrotation Zrotation
									JOINT right_hand
									{
										OFFSET	110.7	-3.89999	13.6
										CHANNELS 3  Xrotation Yrotation Zrotation
										JOINT right_ee
										{
											OFFSET	80.8	-5.10001	12.1
											CHANNELS 3  Xrotation Yrotation Zrotation
											End Site
											{
												OFFSET	1	0	0
											}
										}
									}
								}
							}
						}
					}
				}
			}
		}
	}
	JOINT left_hip
	{
		OFFSET	-82.8	-127.5	0.300001
		CHANNELS 3  Xrotation Yrotation Zrotation
		JOINT left_knee
		{
			OFFSET	-28.2	-396.7	2.2
			CHANNELS 3  Xrotation Yrotation Zrotation
			JOINT left_ankle
			{
				OFFSET	-11.7	-411.3	35.4
				CHANNELS 3  Xrotation Yrotation Zrotation
				JOINT left_toes
				{
					OFFSET	0	-60	-88.6
					CHANNELS 3  Xrotation Yrotation Zrotation
					JOINT left_foot_ee
					{
						OFFSET	-22.5	-16.5	-42.2
						CHANNELS 3  Xrotation Yrotation Zrotation
						End Site
						{
							OFFSET	1	0	0
						}
					}
				}
			}
		}
	}
	JOINT right_hip
	{
		OFFSET	82.8	-127.5	0.300001
		CHANNELS 3  Xrotation Yrotation Zrotation
		JOINT right_knee
		{
			OFFSET	28.2	-396.7	2.2
			CHANNELS 3  Xrotation Yrotation Zrotation
			JOINT right_ankle
			{
				OFFSET	11.7	-411.3	35.4
				CHANNELS 3  Xrotation Yrotation Zrotation
				JOINT right_toes
				{
					OFFSET	0	-60	-88.6
					CHANNELS 3  Xrotation Yrotation Zrotation
					JOINT right_foot_ee
					{
						OFFSET	22.5	-16.5	-42.2
						CHANNELS 3  Xrotation Yrotation Zrotation
						End Site
						{
							OFFSET	1	0	0
						}
					}
				}
			}
		}
	}
}
MOTION
Frames: 9
Frame Time: 0.02
2846.76 698.647 -634.849 163.63 -71.8362 169.555 -2.02381 -0.61584 -3.87383 -2.01554 -0.368282 -3.9051 -1.98146 0.595732 -3.87697 -2.00243 -0.0235498 -3.92233 0.202491 9.02343 6.35468 0.352595 10.8435 7.7641 -0.0 0.0 -0.0 4.93347 23.7862 9.50812 16.9202 -34.1455 71.4697 4.43422 -65.5015 2.8531 -33.2602 -2.26455 3.5358 -2.60638 7.12693 -14.1319 -0.0 0.0 -0.0 -3.25372 6.68863 7.45885 -13.9697 5.27633 -73.6291 0.512982 14.2582 -0.0641603 16.3383 -0.283564 2.06075 -0.114833 -27.955 -10.3423 0.0 0.0 0.0 -25.0682 1.86847 5.24906 4.86857 -0.230882 -0.711051 41.5456 17.0749 -5.10522 -30.5776 0.0 0.0 -0.0 0.0 -0.0 28.1773 18.2632 -12.088 -6.03189 -0.200938 -0.903483 37.3696 26.6454 5.4391 -26.4894 0.0 0.0 0.0 0.0 0.0 
2864.98 693.353 -630.784 162.791 -72.5151 168.162 -2.0128 -0.634407 -3.84278 -2.00467 -0.388783 -3.87529 -1.9695 0.56771 -3.85318 -1.99021 -0.0474735 -3.89443 0.81955 8.93714 6.54454 0.97252 10.4127 7.94468 -0.0 0.0 -0.0 4.18933 23.5775 8.47914 15.9926 -33.8553 72.4827 4.56621 -66.1283 2.97351 -33.5636 -2.2941 3.56113 -2.40851 8.05204 -12.3428 -0.0 0.0 -0.0 -3.17595 6.72571 7.30402 -13.4973 4.987 -73.7207 0.552234 15.2997 -0.0741734 17.712 -0.280434 2.23618 0.079102 -27.8694 -11.39 0.0 0.0 0.0 -26.0109 1.82802 6.28183 3.98862 -0.184681 -0.583996 41.5769 17.0755 -5.10797 -30.0865 0.0 0.0 -0.0 0.0 -0.0 27.8229 18.4681 -12.0217 -7.01897 -0.224712 -1.0531 39.7088 25.3099 5.58991 -25.4016 0.0 0.0 0.0 0.0 0.0 
2883.71 690.048 -627.919 163.189 -73.2934 168.104 -2.027 -0.647212 -3.81383 -2.019 -0.403401 -3.84722 -1.98309 0.547552 -3.82938 -2.00354 -0.0636302 -3.86775 1.1709 8.8228 6.72906 1.32523 9.98677 8.12831 -0.0 0.0 -0.0 3.87443 23.3052 8.04352 14.9817 -33.6316 73.1216 4.7119 -66.7857 3.10708 -33.706 -2.30801 3.57296 -2.27878 8.66123 -11.1811 -0.0 0.0 -0.0 -2.92123 7.02055 6.82451 -12.907 4.76654 -73.4897 0.577684 15.9696 -0.0810324 18.6091 -0.27612 2.35068 0.196145 -27.7938 -12.0178 0.0 0.0 0.0 -25.8384 1.81527 6.64204 3.73906 -0.171935 -0.547838 42.0655 16.6493 -5.14226 -29.5849 0.0 0.0 -0.0 0.0 -0.0 28.0727 18.4122 -12.0325 -7.8458 -0.242639 -1.17871 41.7004 24.4287 5.72092 -24.7041 0.0 0.0 0.0 0.0 0.0 
2905.57 691.292 -623.58 160.284 -73.4207 164.836 -2.17399 -0.716347 -3.82893 -2.16595 -0.471438 -3.86667 -2.12474 0.495746 -3.86364 -2.14554 -0.120186 -3.89341 3.30623 8.43887 5.81322 3.43921 9.6916 7.06059 -0.0 0.0 -0.0 2.81174 21.3275 6.51039 13.5404 -33.0048 75.1353 3.96999 -63.0293 2.43482 -33.7859 -2.31583 3.57959 -2.04781 11.3905 -8.33424 -0.0 0.0 -0.0 -2.81946 7.1459 6.63375 -12.2158 5.13508 -73.5476 0.576536 15.9394 -0.0807169 18.7286 -0.27541 2.36593 0.0134275 -27.7377 -10.9781 0.0 0.0 0.0 -25.9532 1.86517 6.92013 -0.0267124 0.00109896 0.00395196 40.8002 19.3796 -5.08737 -29.9001 0.0 0.0 -0.0 0.0 -0.0 27.9521 18.6277 -11.7968 -15.4238 -0.322065 -2.3379 38.6712 23.2854 5.38408 -23.1104 0.0 0.0 0.0 0.0 0.0 
2923.8 696.769 -617.833 160.038 -74.0561 164.31 -2.06345 -0.819421 -3.85955 -2.05535 -0.572359 -3.90378 -2.00679 0.398772 -3.92528 -2.02822 -0.225662 -3.939 3.62071 8.4009 5.50337 3.75032 9.83745 6.70724 -0.0 0.0 -0.0 2.81529 18.8485 6.43254 9.55823 -33.0833 73.4913 3.46854 -59.7861 1.99435 -33.0186 -2.24113 3.51552 -2.0224 10.4043 -8.65116 -0.0 0.0 -0.0 -2.86884 7.16004 6.73815 -10.6216 4.62303 -74.2121 0.600902 16.5768 -0.0875385 18.7746 -0.275129 2.37179 -0.12764 -28.1092 -10.3266 0.0 0.0 0.0 -25.5247 1.87363 6.78485 -1.83319 0.0711285 0.272328 37.8391 18.2824 -4.78848 -29.8976 0.0 0.0 -0.0 0.0 -0.0 25.7391 19.6731 -11.1207 -14.4993 -0.320598 -2.19607 37.9342 22.8627 5.29237 -22.9086 0.0 0.0 0.0 0.0 0.0 
2947.31 696.574 -607.091 159.214 -74.2675 163.629 -1.887 -0.632302 -3.77113 -1.87918 -0.391232 -3.80366 -1.8449 0.539589 -3.78549 -1.86488 -0.0645774 -3.82315 4.53743 8.73294 5.73967 4.67733 10.0418 6.98313 -0.0 0.0 -0.0 2.45292 17.8047 5.83734 7.87835 -32.6986 74.4729 2.79527 -54.1539 1.4292 -32.4418 -2.18553 3.4667 -2.10173 11.5522 -8.60141 -0.0 0.0 -0.0 -2.71168 5.43943 6.14314 -9.41654 4.60599 -74.6501 0.615599 16.9592 -0.0917786 18.8831 -0.274446 2.38563 -0.0675051 -28.9696 -10.9629 0.0 0.0 0.0 -25.5279 1.92491 6.71887 -5.00012 0.173335 0.74755 38.3194 23.1214 -4.94819 -29.1877 0.0 0.0 -0.0 0.0 -0.0 24.6162 19.163 -11.4639 -17.1691 -0.318598 -2.60566 36.872 22.9092 5.19021 -24.1068 0.0 0.0 0.0 0.0 0.0 
2967.15 700.793 -603.182 156.992 -75.0489 160.849 -1.97936 -0.590805 -3.6173 -1.97215 -0.359586 -3.64751 -1.94147 0.538673 -3.62542 -1.95981 -0.0402562 -3.66495 4.18874 7.85814 4.97597 4.30123 9.25749 6.07554 -0.0 0.0 -0.0 2.15441 14.8776 5.20996 5.90944 -32.7938 75.1376 2.44165 -50.4093 1.14933 -33.1076 -2.24975 3.523 -1.7978 12.5897 -6.16017 -0.0 0.0 -0.0 -2.62756 4.87626 5.88253 -7.71898 4.29825 -74.6372 0.638767 17.5588 -0.0986525 19.2036 -0.272275 2.42651 -0.0760291 -28.9626 -10.9137 0.0 0.0 0.0 -25.1292 1.94869 6.97312 -7.7871 0.241425 1.16978 36.3243 24.1087 -4.77522 -29.433 0.0 0.0 -0.0 0.0 -0.0 23.4599 19.7043 -10.6852 -19.262 -0.30369 -2.92641 34.5503 21.2811 4.87879 -23.801 0.0 0.0 0.0 0.0 0.0 
2981.79 710.323 -601.995 155.787 -75.3257 159.341 -2.00639 -0.561275 -3.50798 -1.99961 -0.337059 -3.53654 -1.97146 0.535358 -3.51203 -1.98867 -0.0256565 -3.55245 4.95788 6.97992 4.32983 5.04613 8.18974 5.29002 -0.0 0.0 -0.0 2.12588 13.6888 5.09048 4.1349 -32.4552 76.1807 1.98356 -44.4922 0.811407 -33.2058 -2.25927 3.53124 -1.73406 13.0973 -5.51573 -0.0 0.0 -0.0 -2.89121 4.21391 6.31099 -4.65584 4.57137 -75.0838 0.7254 19.7655 -0.126379 19.6072 -0.269215 2.47797 -0.108807 -28.9006 -10.7121 0.0 0.0 0.0 -21.514 2.28865 5.12857 -10.7253 0.290882 1.61789 33.3793 26.7187 -4.53645 -30.953 0.0 0.0 -0.0 0.0 -0.0 21.998 20.1806 -10.5847 -19.9535 -0.296189 -3.03225 32.703 20.2773 4.64055 -25.0044 0.0 0.0 0.0 0.0 0.0 
2998.78 711.296 -597.302 158.876 -73.5559 162.614 -1.92533 -0.280004 -3.52544 -1.91841 -0.0552474 -3.53609 -1.90849 0.805263 -3.44374 -1.92495 0.251638 -3.52757 3.4532 6.54881 4.68355 3.53431 7.35102 5.6763 -0.0 0.0 -0.0 2.20974 15.6062 5.34144 2.36923 -30.934 76.7983 1.61981 -38.7408 0.569517 -31.7789 -2.12226 3.40991 -1.16293 12.6851 -2.10629 -0.0 0.0 -0.0 -2.77046 3.96025 6.02538 -2.43928 6.77982 -75.1036 0.777232 21.0575 -0.144457 19.9043 -0.266732 2.51584 -0.319982 -28.774 -9.51047 0.0 0.0 0.0 -18.8772 3.15595 2.79798 -15.3048 0.322005 2.31965 35.0599 26.418 -4.71053 -30.8989 0.0 0.0 -0.0 0.0 -0.0 20.9604 21.1845 -10.7017 -20.3461 -0.291363 -3.0923 34.3602 20.4416 4.82378 -28.2366 0.0 0.0 0.0 0.0 0.0 
